<svg xmlns="http://www.w3.org/2000/svg" viewBox="0 0 800 400">
  <rect width="800" height="400" fill="#002F6C"/>
  <polygon points="400,0 400,400 800,0" fill="#FECB00"/>
  <g fill="#FFFFFF">
    <polygon points="340,10 344,22 355,22 346,29 349,40 340,33 331,40 334,29 325,22 336,22" />
    <polygon points="390,60 394,72 405,72 396,79 399,90 390,83 381,90 384,79 375,72 386,72" />
    <polygon points="440,110 444,122 455,122 446,129 449,140 440,133 431,140 434,129 425,122 436,122" />
    <polygon points="490,160 494,172 505,172 496,179 499,190 490,183 481,190 484,179 475,172 486,172" />
    <polygon points="540,210 544,222 555,222 546,229 549,240 540,233 531,240 534,229 525,222 536,222" />
    <polygon points="590,260 594,272 605,272 596,279 599,290 590,283 581,290 584,279 575,272 586,272" />
    <polygon points="640,310 644,322 655,322 646,329 649,340 640,333 631,340 634,329 625,322 636,322" />
  </g>
</svg>
