<?xml version="1.0" encoding="UTF-8"?>
<svg id="Layer_1" xmlns="http://www.w3.org/2000/svg" version="1.1" viewBox="0 0 450 450">
  <!-- Generator: Adobe Illustrator 29.5.1, SVG Export Plug-In . SVG Version: 2.1.0 Build 141)  -->
  <defs>
    <style>
      .st0 {
        fill: #727171;
      }

      .st1 {
        fill: #a2a3a3;
      }

      .st2 {
        fill: #949594;
      }

      .st3 {
        fill: #707171;
      }
    </style>
  </defs>
  <path class="st3" d="M434.06,450H12.77c.74-19.52,3.45-51.57,12.84-75.85,14.47-37.42,91.31-58.38,119.25-68.86,1.29-.48,2.5-1.07,3.63-1.75,13.16,34.22,49.9,43.85,74.08,43.17,26.27-.74,56.19-3.3,76.78-42.6.83.45,1.7.84,2.61,1.18,27.94,10.48,104.78,31.44,119.25,68.86,9.39,24.28,12.1,56.33,12.84,75.85Z"/>
  <path class="st2" d="M299.36,304.11c-20.59,39.3-50.51,41.86-76.78,42.6-24.18.68-60.91-8.96-74.08-43.17,12.92-7.75,16.27-27.7,16.66-44.09,9.65,11.85,20.84,19.21,30.75,23.77,20.04,9.22,43.52,6.81,61.49-5.98,8.78-6.25,17.17-14.29,24.24-23.25-.22,17.54,2.42,42.03,17.72,50.13Z"/>
  <path class="st1" d="M301.52,209.21c-1.24,15-9,30.97-19.88,44.76h0c-7.07,8.97-15.47,17.01-24.24,23.26-17.97,12.79-41.44,15.21-61.49,5.98-9.91-4.56-21.1-11.92-30.75-23.77-9.59-11.76-17.68-27.95-21.54-50.23-23.95,2-24.62-44.35-22.18-53,1.38-4.89,5.82-5.25,9.41-4.63,0,.03.01.06.02.08.78,3.66,8.65,17.3,10.64,16.3,2-1,.33-16.85,1-21.07.66-4.21,5.32-9.98,6.65-23.29,1.33-13.3,3.77-27.28,9.31-33.48,5.55-6.21,19.3-9.98,32.16-5.99,12.86,3.99,38.14.44,46.57-.22,8.43-.66,22.84,1.55,33.27,1.99,10.42.45,18.52,8.1,22.29,14.08,3.77,5.99,2.77,19.18,3.66,26.94.89,7.77,6.43,20.4,6.43,20.4-2.15,30.48,2.96,23.14,9.54,8.21.19-1.23.39-2.46.59-3.69,3.73-.91,9.16-1.16,10.71,4.35,2.44,8.65,1.78,55-22.18,53Z"/>
  <path class="st0" d="M312.98,151.86c-.2,1.23-.4,2.46-.59,3.69-6.58,14.93-11.69,22.27-9.54-8.21,0,0-5.55-12.64-6.43-20.4-.89-7.76.11-20.95-3.66-26.94-3.77-5.99-11.86-13.64-22.29-14.08-10.42-.44-24.84-2.66-33.27-1.99-8.43.66-33.71,4.21-46.57.22-12.86-3.99-26.61-.22-32.16,5.99-5.54,6.21-7.98,20.18-9.31,33.48-1.33,13.31-5.99,19.07-6.65,23.29-.66,4.21,1,20.07-1,21.07-1.99,1-9.87-12.64-10.64-16.3,0-.02,0-.05-.02-.08-.52-2.64-6.3-37.76-3.42-60.35,2.66-20.92,14.19-29.27,14.19-29.27,4.88-48.79,112.21-57.66,152.58-10.87,38.77,21.1,25.3,61.73,18.78,100.77Z"/>
</svg>