<svg width="333" height="370" viewBox="0 0 333 370" fill="none" xmlns="http://www.w3.org/2000/svg">
<g filter="url(#filter0_dd_38_8176)">
<path d="M209.84 64L170.019 122.443L147.208 122.32L116.399 186.648L115.36 122.428L80 122.394L92.0839 230.3L125.95 230.366L136.812 214.971L89.7479 305.634L166.235 184.92L125.455 200.485L209.84 64Z" fill="#F6503D"/>
<path d="M251.131 159.119C253.334 151.164 254.093 142.722 249.827 135.266C246.021 128.612 238.527 125.017 231.379 123.115C220.775 120.293 208.949 120.45 198.304 122.97C195.855 123.55 193.555 124.481 191.142 125.153L211.31 88.3132L155.712 175.41L197.382 159.79L178.765 187.19C183.709 190.601 189.294 192.911 194.87 195.093C198.012 196.323 201.683 197.223 204.403 199.254C205.632 200.171 206.397 201.495 206.686 202.995C207.221 205.766 206.33 209.168 204.706 211.447C202.995 213.849 200.535 215.162 197.646 215.616C194.184 216.16 189.185 215.97 186.269 213.762C184.802 212.65 184.271 211.132 184.064 209.372C183.677 206.073 184.938 202.645 185.93 199.539L170.403 199.178L150.115 226.644C156.021 234.517 163.309 238.067 172.673 240.331C184.886 243.052 199.978 243.612 211.853 239.197C215.336 237.902 218.676 236.037 221.805 234.048C231.664 227.782 239.495 216.866 242.043 205.426C243.673 198.107 243.141 189.81 239.008 183.366C234.294 176.012 226.854 173.223 219.11 170.31L208.479 166.3C205.52 165.175 202.051 164.071 199.931 161.581C198.445 159.834 198.291 157.246 198.75 155.083C199.384 152.091 201.51 149.255 204.071 147.618C206.436 146.107 209.533 145.737 212.248 146.356C214.128 146.785 215.957 147.827 216.993 149.495C218.795 152.397 217.466 156.018 217.23 159.15L251.131 159.119Z" fill="#597BEC"/>
</g>
<defs>
<filter id="filter0_dd_38_8176" x="0" y="0" width="332.909" height="369.634" filterUnits="userSpaceOnUse" color-interpolation-filters="sRGB">
<feFlood flood-opacity="0" result="BackgroundImageFix"/>
<feColorMatrix in="SourceAlpha" type="matrix" values="0 0 0 0 0 0 0 0 0 0 0 0 0 0 0 0 0 0 127 0" result="hardAlpha"/>
<feOffset dx="-16"/>
<feGaussianBlur stdDeviation="32"/>
<feComposite in2="hardAlpha" operator="out"/>
<feColorMatrix type="matrix" values="0 0 0 0 1 0 0 0 0 0 0 0 0 0 0 0 0 0 0.6 0"/>
<feBlend mode="normal" in2="BackgroundImageFix" result="effect1_dropShadow_38_8176"/>
<feColorMatrix in="SourceAlpha" type="matrix" values="0 0 0 0 0 0 0 0 0 0 0 0 0 0 0 0 0 0 127 0" result="hardAlpha"/>
<feOffset dx="16"/>
<feGaussianBlur stdDeviation="32"/>
<feComposite in2="hardAlpha" operator="out"/>
<feColorMatrix type="matrix" values="0 0 0 0 0.336883 0 0 0 0 0.38516 0 0 0 0 0.916203 0 0 0 0.6 0"/>
<feBlend mode="normal" in2="effect1_dropShadow_38_8176" result="effect2_dropShadow_38_8176"/>
<feBlend mode="normal" in="SourceGraphic" in2="effect2_dropShadow_38_8176" result="shape"/>
</filter>
</defs>
</svg>
